<svg width="45px" height="44px" viewBox="181 142 45 44" xmlns="http://www.w3.org/2000/svg" xmlns:xlink="http://www.w3.org/1999/xlink" version="1.1" class="icon-github">
    <path id="path" d="M203.478 143.273 C191.484 143.273 181.76 152.997 181.76 164.993 181.76 174.589 187.983 182.729 196.614 185.602 197.7 185.801 198.096 185.13 198.096 184.554 198.096 184.04 198.078 182.673 198.067 180.861 192.026 182.173 190.751 177.949 190.751 177.949 189.763 175.441 188.339 174.773 188.339 174.773 186.367 173.425 188.488 173.452 188.488 173.452 190.668 173.606 191.815 175.69 191.815 175.69 193.752 179.009 196.899 178.05 198.136 177.496 198.334 176.092 198.894 175.134 199.515 174.592 194.692 174.043 189.622 172.18 189.622 163.857 189.622 161.486 190.468 159.548 191.858 158.029 191.634 157.479 190.888 155.271 192.07 152.281 192.07 152.281 193.894 151.697 198.043 154.508 199.775 154.026 201.634 153.785 203.48 153.777 205.324 153.785 207.183 154.026 208.917 154.508 213.064 151.697 214.884 152.281 214.884 152.281 216.069 155.271 215.324 157.479 215.1 158.029 216.492 159.548 217.333 161.486 217.333 163.857 217.333 172.201 212.255 174.037 207.416 174.574 208.196 175.245 208.891 176.57 208.891 178.597 208.891 181.5 208.864 183.842 208.864 184.554 208.864 185.136 209.255 185.812 210.357 185.6 218.981 182.721 225.199 174.586 225.199 164.993 225.199 152.997 215.474 143.273 203.478 143.273" fill="#ddd" fill-opacity="1" stroke="none"/>
   </svg>